# xmcd
#
# Track frame offsets:
# 150
# 29049
# 40443
# 52110
# 63272
# 75791
# 87345
# 99890
# 113017
# 125589
# 136672
# 147993
# 160006
# 172353
# 183864
# 195944
# 207991
#
# Disc length: 2924 seconds
#
#
# Revision: 1
# Processed by: cddbd v1.5.2PL0 Copyright (c) Steve Scherf et al.
# Submitted via: FreeRIP 2.91 
#
DISCID=e40b6a11
DTITLE=Ray Charles - The very best of [CD2)
DYEAR=2004
DGENRE=R&B
TTITLE0=What'd I Say
TTITLE1=You Be My Baby
TTITLE2=If I Give You My Love
TTITLE3=Jack She's On The Ball
TTITLE4=Blues Before Sunrise
TTITLE5=How Long, How Long Blues
TTITLE6=You'll Always Miss The Water
TTITLE7=Alone In This City
TTITLE8=Can Anyone Ask For More
TTITLE9=Confession Blues
TTITLE10=Here I Am (All Alone Again)
TTITLE11=I Live Only For You, I Will Never Let You Go
TTITLE12=Rockin' Chair Blues
TTITLE13=C.C.Rider (See What You Have Done)
TTITLE14=Honey Honey
TTITLE15=I've Had My Mun (Going Down Slow)
TTITLE16=Tell Me Baby (What Have I Done)
EXTD=Tracks 5-13: Ray Charles and The Maxim Trio
EXTT0=
EXTT1=
EXTT2=
EXTT3=
EXTT4=
EXTT5=
EXTT6=
EXTT7=
EXTT8=
EXTT9=
EXTT10=
EXTT11=
EXTT12=
EXTT13=
EXTT14=
EXTT15=
EXTT16=
PLAYORDER=
